<?xml version="1.0" standalone="no"?>
<svg xmlns:xlink="http://www.w3.org/1999/xlink" id="wave" style="transform:rotate(180deg); transition: 0.3s" viewBox="0 0 1440 220" version="1.1" xmlns="http://www.w3.org/2000/svg"><defs><linearGradient id="sw-gradient-0" x1="0" x2="0" y1="1" y2="0"><stop stop-color="rgba(27, 75, 138, 1)" offset="0%"/><stop stop-color="rgba(27, 75, 138, 1)" offset="100%"/></linearGradient></defs><path style="transform:translate(0, 0px); opacity:1" fill="url(#sw-gradient-0)" d="M0,22L34.3,33C68.6,44,137,66,206,91.7C274.3,117,343,147,411,146.7C480,147,549,117,617,110C685.7,103,754,117,823,110C891.4,103,960,73,1029,58.7C1097.1,44,1166,44,1234,47.7C1302.9,51,1371,59,1440,77C1508.6,95,1577,125,1646,113.7C1714.3,103,1783,51,1851,33C1920,15,1989,29,2057,29.3C2125.7,29,2194,15,2263,29.3C2331.4,44,2400,88,2469,113.7C2537.1,139,2606,147,2674,124.7C2742.9,103,2811,51,2880,40.3C2948.6,29,3017,59,3086,73.3C3154.3,88,3223,88,3291,80.7C3360,73,3429,59,3497,44C3565.7,29,3634,15,3703,29.3C3771.4,44,3840,88,3909,91.7C3977.1,95,4046,59,4114,66C4182.9,73,4251,125,4320,146.7C4388.6,169,4457,161,4526,157.7C4594.3,154,4663,154,4731,154C4800,154,4869,154,4903,154L4937.1,154L4937.1,220L4902.9,220C4868.6,220,4800,220,4731,220C4662.9,220,4594,220,4526,220C4457.1,220,4389,220,4320,220C4251.4,220,4183,220,4114,220C4045.7,220,3977,220,3909,220C3840,220,3771,220,3703,220C3634.3,220,3566,220,3497,220C3428.6,220,3360,220,3291,220C3222.9,220,3154,220,3086,220C3017.1,220,2949,220,2880,220C2811.4,220,2743,220,2674,220C2605.7,220,2537,220,2469,220C2400,220,2331,220,2263,220C2194.3,220,2126,220,2057,220C1988.6,220,1920,220,1851,220C1782.9,220,1714,220,1646,220C1577.1,220,1509,220,1440,220C1371.4,220,1303,220,1234,220C1165.7,220,1097,220,1029,220C960,220,891,220,823,220C754.3,220,686,220,617,220C548.6,220,480,220,411,220C342.9,220,274,220,206,220C137.1,220,69,220,34,220L0,220Z"/></svg>